# xmcd CD database file
#
# Track frame offsets:
#	187
#	27479
#	57219
#	91157
#	140322
#	152334
#	173012
#	188474
#	201977
#	217624
#	247422
#	272969
#
# Disc length: 4099 seconds
#
# Revision: 0
# Processed by: cddbd v1.5.1PL0 Copyright (c) Steve Scherf et al.
# Submitted via: CDex 1.51
#
DISCID=9f10010c
DTITLE=Masuda Jazz Quartet With Friends - Touch And Go
DYEAR=1900
DGENRE=Jazz
TTITLE0=Used To Be Jackson
TTITLE1=Hollyland
TTITLE2=Night Mist Blues
TTITLE3=Touch And Go
TTITLE4=Straighten Up And Fly Right
TTITLE5=Dindi
TTITLE6=Shiny Stockings
TTITLE7=You Were Meant For Me
TTITLE8=Just Friends
TTITLE9=It Don't Mean A Thing
TTITLE10=Eronel
TTITLE11=Slippery
EXTD=
EXTT0=
EXTT1=
EXTT2=
EXTT3=
EXTT4=
EXTT5=
EXTT6=
EXTT7=
EXTT8=
EXTT9=
EXTT10=
EXTT11=
PLAYORDER=
